<?xml version="1.0" standalone="no"?>
<!DOCTYPE svg PUBLIC "-//W3C//DTD SVG 20010904//EN"
 "http://www.w3.org/TR/2001/REC-SVG-20010904/DTD/svg10.dtd">
<svg version="1.0" xmlns="http://www.w3.org/2000/svg"
 width="1460.000000pt" height="1464.000000pt" viewBox="0 0 1460.000000 1464.000000"
 preserveAspectRatio="xMidYMid meet">

<g transform="translate(0.000000,1464.000000) scale(0.100000,-0.100000)"
fill="#000000" stroke="none">
<path d="M7025 14624 c-524 -32 -890 -79 -1290 -169 -1065 -238 -2081 -722
-2929 -1394 -317 -252 -711 -625 -959 -908 -849 -971 -1422 -2124 -1672 -3358
-105 -522 -147 -939 -147 -1470 0 -328 10 -526 43 -820 164 -1488 784 -2888
1783 -4025 130 -148 498 -516 646 -646 864 -759 1882 -1301 2985 -1589 407
-107 849 -179 1320 -217 207 -16 823 -16 1030 0 1008 81 1893 325 2760 762
710 359 1308 791 1875 1360 235 234 366 379 548 607 326 410 572 794 812 1268
406 803 641 1599 747 2530 15 138 18 246 18 775 0 669 -4 724 -70 1140 -221
1376 -816 2640 -1739 3690 -130 148 -498 516 -646 646 -864 759 -1882 1301
-2985 1589 -392 103 -813 174 -1247 210 -172 15 -751 27 -883 19z m779 -2221
c240 -299 436 -544 436 -547 0 -2 -64 -6 -142 -8 -137 -3 -145 -4 -197 -33
-123 -68 -186 -209 -151 -337 17 -60 71 -128 125 -159 38 -21 81 -33 184 -48
355 -55 717 -150 1021 -268 144 -56 210 -60 294 -19 170 83 202 295 67 434
-21 21 -82 62 -137 92 -128 69 -186 102 -182 105 6 6 1360 346 1364 343 2 -3
-156 -283 -352 -624 -196 -340 -405 -708 -466 -816 -60 -109 -113 -200 -118
-203 -5 -3 -62 11 -127 30 -920 280 -2055 358 -3103 214 -346 -48 -763 -140
-1045 -230 -70 -22 -128 -39 -130 -37 -3 3 -915 1600 -934 1636 -7 13 -11 26
-8 28 5 5 1350 -335 1357 -343 3 -3 1 -7 -5 -9 -40 -15 -304 -169 -326 -190
-32 -30 -64 -100 -74 -161 -19 -117 79 -255 221 -309 l42 -16 102 41 c340 140
721 244 1093 301 152 23 186 33 235 75 81 68 113 195 78 303 -22 64 -91 143
-154 174 -40 20 -67 24 -190 28 l-143 5 392 485 c557 691 509 634 524 619 7
-8 209 -258 449 -556z m-415 -2260 c53 -6 53 -6 74 -57 41 -100 127 -264 185
-352 188 -287 410 -433 657 -434 212 0 390 -132 552 -408 54 -91 153 -300 153
-322 0 -6 -19 0 -42 14 -75 43 -107 47 -215 25 -344 -71 -1068 -321 -1171
-405 l-22 -19 2 -570 3 -570 33 65 c37 74 84 250 103 387 l13 92 49 27 c73 40
144 42 307 9 263 -53 467 -44 639 27 78 33 281 161 281 178 0 14 -96 83 -158
115 -152 76 -301 83 -615 29 -246 -42 -336 -63 -410 -98 -69 -33 -73 -33 -46
5 157 221 389 364 674 416 137 25 385 22 550 -6 72 -13 134 -26 138 -31 5 -4
40 -99 78 -211 93 -272 134 -379 181 -471 71 -137 154 -208 244 -208 23 0 43
-3 46 -6 4 -3 -91 -155 -210 -337 -211 -326 -216 -334 -259 -461 -23 -72 -61
-167 -84 -213 -68 -137 -202 -313 -239 -313 -40 0 -231 75 -354 140 -140 74
-171 87 -371 160 l-130 48 -28 98 c-33 115 -60 167 -115 216 -45 40 -95 53
-150 39 -41 -11 -95 -61 -110 -101 l-10 -25 87 3 c55 1 95 -2 111 -10 35 -18
60 -74 60 -133 0 -88 -4 -93 -109 -142 -274 -128 -482 -213 -519 -213 -25 1
-231 84 -444 180 l-188 85 0 78 c0 127 33 164 136 151 73 -9 113 1 107 27 -10
36 -67 87 -111 98 -121 33 -224 -71 -269 -270 -15 -67 -21 -80 -43 -88 -14 -6
-88 -33 -165 -62 -77 -28 -216 -89 -308 -136 -158 -79 -321 -143 -363 -143
-34 0 -165 168 -232 297 -23 44 -62 141 -86 214 -42 129 -53 148 -254 474
-115 187 -208 343 -205 348 2 4 23 7 46 7 149 1 230 128 390 605 l94 280 89
17 c500 95 926 -9 1186 -291 70 -75 112 -130 106 -136 -3 -3 -34 8 -69 24 -80
35 -151 52 -404 96 -239 42 -361 45 -481 15 -98 -25 -193 -72 -252 -125 l-45
-41 116 -76 c124 -81 237 -129 353 -149 100 -17 305 -6 453 25 68 14 148 26
177 26 54 0 154 -31 172 -53 6 -7 20 -66 31 -132 35 -204 93 -387 131 -410 10
-6 12 104 8 560 l-5 569 -33 28 c-92 77 -821 327 -1160 398 -101 21 -133 17
-206 -24 -26 -14 -49 -25 -51 -23 -5 5 90 215 129 286 92 165 205 300 306 367
79 53 151 74 277 84 128 10 227 39 326 96 86 50 239 206 318 324 60 90 211
381 211 407 0 9 33 13 113 16 61 1 130 4 152 5 22 1 64 -1 94 -5z m541 -28
c546 -41 1258 -210 1740 -415 l146 -61 57 -115 c81 -163 118 -220 248 -384
184 -233 290 -400 358 -560 34 -80 84 -250 76 -259 -18 -17 -235 79 -319 140
-22 16 -41 27 -43 25 -4 -4 71 -258 97 -324 11 -29 38 -88 59 -130 99 -198
133 -362 133 -647 0 -118 -6 -239 -16 -320 -17 -132 -68 -401 -84 -445 -8 -22
-11 -19 -20 30 -6 30 -13 96 -17 145 -20 290 -100 566 -209 719 -49 69 -133
137 -195 157 -116 38 -258 162 -353 309 -31 47 -83 139 -115 205 -59 117 -90
190 -248 580 -164 405 -273 594 -430 750 -113 113 -184 151 -309 165 -48 6
-124 14 -170 19 -50 6 -117 23 -167 42 -76 29 -92 40 -164 114 -46 47 -100
115 -127 161 -64 109 -66 116 -37 110 13 -3 62 -8 109 -11z m-1250 -1 c0 -21
-101 -152 -164 -212 -98 -93 -201 -152 -345 -198 -436 -139 -649 -282 -791
-530 -58 -102 -133 -277 -214 -504 -197 -546 -277 -716 -404 -852 -56 -61
-145 -121 -213 -143 -103 -35 -202 -134 -268 -270 -76 -157 -118 -333 -146
-614 -9 -91 -20 -171 -24 -179 -15 -27 -76 273 -100 490 -16 144 -14 432 5
557 17 118 70 289 113 366 37 66 81 182 125 331 20 67 36 124 36 128 0 4 -26
-11 -57 -32 -109 -74 -233 -127 -233 -100 0 27 51 202 82 279 61 156 190 367
375 616 48 65 129 178 180 252 l94 135 87 38 c438 196 1048 356 1607 422 72 9
144 17 160 19 54 7 95 7 95 1z m-2000 -3114 c192 -335 367 -747 440 -1038 68
-272 66 -524 -7 -757 -14 -44 -66 -174 -115 -289 -106 -248 -152 -379 -173
-500 -19 -114 -19 -317 1 -434 8 -51 14 -97 12 -103 -6 -18 -125 151 -172 246
-118 235 -136 478 -56 728 15 48 26 87 24 87 -18 0 -85 -45 -115 -77 -43 -44
-68 -90 -83 -152 l-12 -44 -65 71 c-109 118 -167 247 -176 397 -9 150 22 256
117 395 97 142 114 221 80 370 -28 121 -38 405 -20 546 24 193 90 417 178 607
37 79 48 95 58 85 7 -7 45 -69 84 -138z m5260 48 c169 -360 230 -785 160
-1118 -36 -175 -23 -254 67 -385 93 -137 126 -234 126 -370 1 -166 -58 -309
-188 -453 -48 -53 -65 -58 -65 -18 0 69 -101 200 -172 225 -27 9 -29 9 -23 -7
25 -66 56 -196 64 -274 26 -256 -57 -513 -237 -736 -19 -23 -36 -41 -38 -39
-2 2 3 39 12 83 55 288 15 536 -146 904 -137 312 -171 421 -191 610 -30 286
62 655 281 1130 84 183 283 550 298 550 2 0 25 -46 52 -102z m-3490 -791 c0
-32 50 -100 100 -136 140 -101 549 -251 685 -251 76 0 343 76 501 143 144 61
263 150 286 213 7 19 15 33 19 32 4 -2 81 -70 171 -153 90 -82 240 -220 334
-305 259 -237 342 -324 398 -420 263 -447 400 -1283 286 -1738 -32 -126 -115
-278 -247 -454 -220 -292 -249 -366 -207 -532 12 -50 13 -71 5 -104 -26 -94
-128 -176 -283 -228 -43 -14 -81 -24 -83 -22 -2 2 21 33 52 68 63 73 107 157
124 239 18 89 6 247 -30 391 -36 142 -48 278 -32 363 16 87 50 163 144 319
146 243 182 357 181 563 -1 122 -4 152 -28 229 -59 196 -161 365 -332 547 -58
63 -112 117 -119 121 -6 4 -33 12 -59 18 -27 6 -125 48 -220 95 -280 137 -360
152 -528 97 -134 -44 -199 -55 -323 -55 -120 1 -225 19 -345 60 -145 51 -237
33 -476 -92 -78 -41 -170 -82 -205 -91 -61 -17 -69 -23 -179 -134 -179 -182
-286 -347 -349 -535 -61 -187 -62 -365 -1 -547 38 -113 63 -162 173 -338 197
-314 213 -389 128 -612 -108 -285 -89 -508 59 -672 l35 -39 -35 8 c-64 13
-184 64 -238 100 -103 70 -135 145 -108 253 21 79 20 131 -3 200 -28 83 -59
134 -185 302 -245 327 -293 456 -303 815 -14 513 132 1117 350 1447 63 95 94
129 232 252 55 49 220 205 367 347 147 143 272 259 278 259 5 0 10 -11 10 -23z
m795 -1109 c11 0 90 1 175 2 173 2 268 -16 361 -66 81 -45 81 -49 -13 -78
-237 -72 -433 -103 -582 -92 -96 7 -265 37 -356 62 -143 40 -190 56 -190 64 0
15 99 68 157 86 87 25 172 33 303 27 69 -3 134 -6 145 -5z m853 -251 c61 -25
131 -56 155 -70 154 -91 287 -354 287 -571 0 -140 -37 -242 -163 -449 -127
-208 -171 -354 -171 -567 0 -109 4 -151 22 -218 25 -92 76 -201 128 -275 19
-26 34 -51 34 -55 0 -10 -65 -64 -124 -105 -73 -49 -182 -88 -272 -97 -46 -5
-105 -18 -131 -30 -119 -52 -215 -203 -253 -398 -7 -34 -16 -62 -19 -62 -4 0
-27 13 -52 29 -91 59 -149 143 -164 237 -10 57 8 138 54 245 79 186 97 330 52
422 -20 40 -56 76 -66 65 -1 -2 2 -27 8 -56 24 -113 -25 -228 -174 -414 -53
-67 -100 -134 -103 -149 -6 -30 3 -70 28 -117 l17 -32 -29 0 c-54 0 -220 48
-306 89 -204 95 -448 294 -595 484 l-41 54 34 69 c54 106 71 181 70 314 -2
183 -49 322 -184 535 -137 218 -174 318 -174 470 1 125 19 199 84 330 91 185
168 259 331 320 l96 37 74 -50 c129 -87 242 -136 408 -179 98 -26 120 -28 286
-27 151 0 192 4 257 22 161 44 294 111 403 201 33 27 65 48 70 46 6 -2 61 -24
123 -48z"/>
</g>
</svg>
